<mxfile host="b5437972-e3b7-493c-a42a-0dc7406476b2" modified="2020-08-17T12:39:24.101Z" agent="5.0 (Macintosh; Intel Mac OS X 10_15_5) AppleWebKit/537.36 (KHTML, like Gecko) Code/1.48.0 Chrome/78.0.3904.130 Electron/7.3.2 Safari/537.36" etag="LwJziMrfSCskNBMYbaNE" version="13.1.3" pages="4">
    <diagram id="6hGFLwfOUW9BJ-s0fimq" name="Page-1">
        <mxGraphModel dx="1158" dy="588" grid="1" gridSize="10" guides="1" tooltips="1" connect="1" arrows="1" fold="1" page="1" pageScale="1" pageWidth="827" pageHeight="1169" math="0" shadow="0">
            <root>
                <mxCell id="0"/>
                <mxCell id="1" parent="0"/>
                <mxCell id="5" style="edgeStyle=orthogonalEdgeStyle;rounded=0;orthogonalLoop=1;jettySize=auto;html=1;exitX=1;exitY=0.5;exitDx=0;exitDy=0;entryX=0;entryY=0.5;entryDx=0;entryDy=0;" parent="1" source="2" target="3" edge="1">
                    <mxGeometry relative="1" as="geometry"/>
                </mxCell>
                <mxCell id="7" style="edgeStyle=orthogonalEdgeStyle;rounded=0;orthogonalLoop=1;jettySize=auto;html=1;exitX=1;exitY=0.75;exitDx=0;exitDy=0;" parent="1" source="2" target="6" edge="1">
                    <mxGeometry relative="1" as="geometry"/>
                </mxCell>
                <mxCell id="2" value="Business Edit" style="rounded=1;whiteSpace=wrap;html=1;arcSize=12;" parent="1" vertex="1">
                    <mxGeometry x="100" y="320" width="130" height="70" as="geometry"/>
                </mxCell>
                <mxCell id="3" value="表单组件" style="rounded=1;whiteSpace=wrap;html=1;" parent="1" vertex="1">
                    <mxGeometry x="340" y="210" width="120" height="60" as="geometry"/>
                </mxCell>
                <mxCell id="6" value="工作流组件" style="rounded=1;whiteSpace=wrap;html=1;" parent="1" vertex="1">
                    <mxGeometry x="220" y="520" width="120" height="60" as="geometry"/>
                </mxCell>
            </root>
        </mxGraphModel>
    </diagram>
    <diagram id="W7t235hSdav5Il7xjK4u" name="Business 子组件">
        &#xa;        &#xa;&#xa;
        <mxGraphModel dx="581" dy="497" grid="1" gridSize="10" guides="1" tooltips="1" connect="1" arrows="1" fold="1" page="1" pageScale="1" pageWidth="827" pageHeight="1169" math="0" shadow="0">
            &#xa;            &#xa;&#xa;
            <root>
                &#xa;                &#xa;&#xa;
                <mxCell id="VZzGFX7L0MtHda5SXJiP-0"/>
                &#xa;                &#xa;&#xa;
                <mxCell id="VZzGFX7L0MtHda5SXJiP-1" parent="VZzGFX7L0MtHda5SXJiP-0"/>
                &#xa;                &#xa;&#xa;
                <mxCell id="VZzGFX7L0MtHda5SXJiP-4" style="edgeStyle=orthogonalEdgeStyle;rounded=0;orthogonalLoop=1;jettySize=auto;html=1;exitX=1;exitY=0.5;exitDx=0;exitDy=0;" parent="VZzGFX7L0MtHda5SXJiP-1" source="VZzGFX7L0MtHda5SXJiP-2" target="VZzGFX7L0MtHda5SXJiP-3" edge="1">
                    &#xa;                    &#xa;&#xa;
                    <mxGeometry relative="1" as="geometry"/>
                    &#xa;                    &#xa;&#xa;
                </mxCell>
                &#xa;                &#xa;&#xa;
                <mxCell id="VZzGFX7L0MtHda5SXJiP-2" value="业务组件" style="rounded=0;whiteSpace=wrap;html=1;" parent="VZzGFX7L0MtHda5SXJiP-1" vertex="1">
                    &#xa;                    &#xa;&#xa;
                    <mxGeometry x="230" y="390" width="120" height="60" as="geometry"/>
                    &#xa;                    &#xa;&#xa;
                </mxCell>
                &#xa;                &#xa;&#xa;
                <mxCell id="VZzGFX7L0MtHda5SXJiP-3" value="纯UI组件*n" style="rounded=0;whiteSpace=wrap;html=1;" parent="VZzGFX7L0MtHda5SXJiP-1" vertex="1">
                    &#xa;                    &#xa;&#xa;
                    <mxGeometry x="420" y="390" width="120" height="60" as="geometry"/>
                    &#xa;                    &#xa;&#xa;
                </mxCell>
                &#xa;                &#xa;&#xa;
                <mxCell id="VZzGFX7L0MtHda5SXJiP-5" value="业务Model原型" style="shape=cylinder;whiteSpace=wrap;html=1;boundedLbl=1;backgroundOutline=1;" parent="VZzGFX7L0MtHda5SXJiP-1" vertex="1">
                    &#xa;                    &#xa;&#xa;
                    <mxGeometry x="230" y="100" width="120" height="80" as="geometry"/>
                    &#xa;                    &#xa;&#xa;
                </mxCell>
                &#xa;                &#xa;&#xa;
                <mxCell id="VZzGFX7L0MtHda5SXJiP-6" value="业务Service" style="rounded=0;whiteSpace=wrap;html=1;" parent="VZzGFX7L0MtHda5SXJiP-1" vertex="1">
                    &#xa;                    &#xa;&#xa;
                    <mxGeometry x="230" y="240" width="120" height="60" as="geometry"/>
                    &#xa;                    &#xa;&#xa;
                </mxCell>
                &#xa;                &#xa;&#xa;
            </root>
            &#xa;            &#xa;&#xa;
        </mxGraphModel>
        &#xa;        &#xa;&#xa;
    </diagram>
    <diagram id="UJn4xRIJK_C6If08vIeA" name="Page-3">
        &#xa;
        <mxGraphModel dx="3497" dy="588" grid="1" gridSize="10" guides="1" tooltips="1" connect="1" arrows="1" fold="1" page="1" pageScale="1" pageWidth="2339" pageHeight="3300" math="0" shadow="0">
            &#xa;
            <root>
                &#xa;
                <mxCell id="sKjG2z_jizI5xqlPLZgd-0"/>
                &#xa;
                <mxCell id="sKjG2z_jizI5xqlPLZgd-1" parent="sKjG2z_jizI5xqlPLZgd-0"/>
                &#xa;
                <mxCell id="7r7a--P4tulTEP3wnlx3-0" value="Business Page Component" style="rounded=0;whiteSpace=wrap;html=1;" parent="sKjG2z_jizI5xqlPLZgd-1" vertex="1">
                    &#xa;
                    <mxGeometry x="-160" y="350" width="120" height="60" as="geometry"/>
                    &#xa;
                </mxCell>
                &#xa;
                <mxCell id="7r7a--P4tulTEP3wnlx3-10" style="edgeStyle=orthogonalEdgeStyle;rounded=0;orthogonalLoop=1;jettySize=auto;html=1;exitX=1;exitY=0.5;exitDx=0;exitDy=0;" parent="sKjG2z_jizI5xqlPLZgd-1" source="7r7a--P4tulTEP3wnlx3-1" target="7r7a--P4tulTEP3wnlx3-2" edge="1">
                    &#xa;
                    <mxGeometry relative="1" as="geometry"/>
                    &#xa;
                </mxCell>
                &#xa;
                <mxCell id="7r7a--P4tulTEP3wnlx3-1" value="Business Edit" style="rounded=0;whiteSpace=wrap;html=1;" parent="sKjG2z_jizI5xqlPLZgd-1" vertex="1">
                    &#xa;
                    <mxGeometry x="300" y="370" width="130" height="60" as="geometry"/>
                    &#xa;
                </mxCell>
                &#xa;
                <mxCell id="7r7a--P4tulTEP3wnlx3-13" style="edgeStyle=orthogonalEdgeStyle;rounded=0;orthogonalLoop=1;jettySize=auto;html=1;exitX=1;exitY=0.5;exitDx=0;exitDy=0;" parent="sKjG2z_jizI5xqlPLZgd-1" source="7r7a--P4tulTEP3wnlx3-2" target="7r7a--P4tulTEP3wnlx3-12" edge="1">
                    &#xa;
                    <mxGeometry relative="1" as="geometry"/>
                    &#xa;
                </mxCell>
                &#xa;
                <mxCell id="7r7a--P4tulTEP3wnlx3-2" value="Form" style="rounded=1;whiteSpace=wrap;html=1;arcSize=0;" parent="sKjG2z_jizI5xqlPLZgd-1" vertex="1">
                    &#xa;
                    <mxGeometry x="480" y="370" width="120" height="60" as="geometry"/>
                    &#xa;
                </mxCell>
                &#xa;
                <mxCell id="7r7a--P4tulTEP3wnlx3-4" value="Business Store" style="shape=cylinder;whiteSpace=wrap;html=1;boundedLbl=1;backgroundOutline=1;" parent="sKjG2z_jizI5xqlPLZgd-1" vertex="1">
                    &#xa;
                    <mxGeometry x="290" y="490" width="140" height="80" as="geometry"/>
                    &#xa;
                </mxCell>
                &#xa;
                <mxCell id="7r7a--P4tulTEP3wnlx3-12" value="Field" style="rounded=0;whiteSpace=wrap;html=1;" parent="sKjG2z_jizI5xqlPLZgd-1" vertex="1">
                    &#xa;
                    <mxGeometry x="730" y="340" width="120" height="60" as="geometry"/>
                    &#xa;
                </mxCell>
                &#xa;
                <mxCell id="7r7a--P4tulTEP3wnlx3-14" value="Business Service" style="shape=process;whiteSpace=wrap;html=1;backgroundOutline=1;" parent="sKjG2z_jizI5xqlPLZgd-1" vertex="1">
                    &#xa;
                    <mxGeometry x="-40" y="350" width="130" height="60" as="geometry"/>
                    &#xa;
                </mxCell>
                &#xa;
                <mxCell id="7r7a--P4tulTEP3wnlx3-18" value="Detail(extra)" style="shape=cylinder;whiteSpace=wrap;html=1;boundedLbl=1;backgroundOutline=1;" parent="sKjG2z_jizI5xqlPLZgd-1" vertex="1">
                    &#xa;
                    <mxGeometry x="410" y="150" width="150" height="80" as="geometry"/>
                    &#xa;
                </mxCell>
                &#xa;
                <mxCell id="DqnN8Kt0hzP3ljwLoTQs-2" style="edgeStyle=orthogonalEdgeStyle;rounded=0;orthogonalLoop=1;jettySize=auto;html=1;entryX=1;entryY=0.5;entryDx=0;entryDy=0;" parent="sKjG2z_jizI5xqlPLZgd-1" source="DqnN8Kt0hzP3ljwLoTQs-0" target="DqnN8Kt0hzP3ljwLoTQs-1" edge="1">
                    &#xa;
                    <mxGeometry relative="1" as="geometry"/>
                    &#xa;
                </mxCell>
                &#xa;
                <mxCell id="DqnN8Kt0hzP3ljwLoTQs-0" value="服务包" style="rounded=0;whiteSpace=wrap;html=1;" parent="sKjG2z_jizI5xqlPLZgd-1" vertex="1">
                    &#xa;
                    <mxGeometry x="760" y="640" width="120" height="60" as="geometry"/>
                    &#xa;
                </mxCell>
                &#xa;
                <mxCell id="DqnN8Kt0hzP3ljwLoTQs-6" style="edgeStyle=orthogonalEdgeStyle;rounded=0;orthogonalLoop=1;jettySize=auto;html=1;" parent="sKjG2z_jizI5xqlPLZgd-1" source="DqnN8Kt0hzP3ljwLoTQs-1" target="DqnN8Kt0hzP3ljwLoTQs-4" edge="1">
                    &#xa;
                    <mxGeometry relative="1" as="geometry"/>
                    &#xa;
                </mxCell>
                &#xa;
                <mxCell id="DqnN8Kt0hzP3ljwLoTQs-7" style="edgeStyle=orthogonalEdgeStyle;rounded=0;orthogonalLoop=1;jettySize=auto;html=1;entryX=1;entryY=0.5;entryDx=0;entryDy=0;" parent="sKjG2z_jizI5xqlPLZgd-1" source="DqnN8Kt0hzP3ljwLoTQs-1" target="DqnN8Kt0hzP3ljwLoTQs-5" edge="1">
                    &#xa;
                    <mxGeometry relative="1" as="geometry"/>
                    &#xa;
                </mxCell>
                &#xa;
                <mxCell id="DqnN8Kt0hzP3ljwLoTQs-1" value="Form服务包" style="rounded=0;whiteSpace=wrap;html=1;" parent="sKjG2z_jizI5xqlPLZgd-1" vertex="1">
                    &#xa;
                    <mxGeometry x="570" y="690" width="120" height="60" as="geometry"/>
                    &#xa;
                </mxCell>
                &#xa;
                <mxCell id="DqnN8Kt0hzP3ljwLoTQs-4" value="Form Entity" style="rounded=1;whiteSpace=wrap;html=1;" parent="sKjG2z_jizI5xqlPLZgd-1" vertex="1">
                    &#xa;
                    <mxGeometry x="340" y="670" width="120" height="60" as="geometry"/>
                    &#xa;
                </mxCell>
                &#xa;
                <mxCell id="DqnN8Kt0hzP3ljwLoTQs-5" value="Form Service" style="rounded=1;whiteSpace=wrap;html=1;" parent="sKjG2z_jizI5xqlPLZgd-1" vertex="1">
                    &#xa;
                    <mxGeometry x="340" y="740" width="120" height="60" as="geometry"/>
                    &#xa;
                </mxCell>
                &#xa;
                <mxCell id="DqnN8Kt0hzP3ljwLoTQs-8" value="" style="rounded=0;whiteSpace=wrap;html=1;" parent="sKjG2z_jizI5xqlPLZgd-1" vertex="1">
                    &#xa;
                    <mxGeometry x="-35" y="490" width="120" height="60" as="geometry"/>
                    &#xa;
                </mxCell>
                &#xa;
            </root>
            &#xa;
        </mxGraphModel>
        &#xa;
    </diagram>
    <diagram id="LnhaIiv8nrn30YEiqH6e" name="Page-4">
        <mxGraphModel dx="1158" dy="588" grid="1" gridSize="10" guides="1" tooltips="1" connect="1" arrows="1" fold="1" page="1" pageScale="1" pageWidth="2339" pageHeight="3300" math="0" shadow="0">
            <root>
                <mxCell id="FQ_uFHgkaTQrJqErBFoK-0"/>
                <mxCell id="FQ_uFHgkaTQrJqErBFoK-1" parent="FQ_uFHgkaTQrJqErBFoK-0"/>
                <mxCell id="54dp4Atp1kGyTMTRMNtC-0" value="Pool" style="swimlane;html=1;childLayout=stackLayout;resizeParent=1;resizeParentMax=0;horizontal=1;startSize=20;horizontalStack=0;" vertex="1" parent="FQ_uFHgkaTQrJqErBFoK-1">
                    <mxGeometry x="120" y="50" width="880" height="620" as="geometry"/>
                </mxCell>
                <mxCell id="54dp4Atp1kGyTMTRMNtC-3" value="Lane 3" style="swimlane;html=1;startSize=20;horizontal=0;shadow=1;" vertex="1" parent="54dp4Atp1kGyTMTRMNtC-0">
                    <mxGeometry y="20" width="880" height="120" as="geometry"/>
                </mxCell>
                <mxCell id="54dp4Atp1kGyTMTRMNtC-1" value="Lane 1" style="swimlane;html=1;startSize=20;horizontal=0;" vertex="1" parent="54dp4Atp1kGyTMTRMNtC-0">
                    <mxGeometry y="140" width="880" height="120" as="geometry"/>
                </mxCell>
                <mxCell id="54dp4Atp1kGyTMTRMNtC-2" value="Lane 2" style="swimlane;html=1;startSize=20;horizontal=0;" vertex="1" parent="54dp4Atp1kGyTMTRMNtC-0">
                    <mxGeometry y="260" width="880" height="120" as="geometry"/>
                </mxCell>
                <mxCell id="54dp4Atp1kGyTMTRMNtC-6" value="Lane 2" style="swimlane;html=1;startSize=20;horizontal=0;" vertex="1" parent="54dp4Atp1kGyTMTRMNtC-0">
                    <mxGeometry y="380" width="880" height="120" as="geometry"/>
                </mxCell>
                <mxCell id="54dp4Atp1kGyTMTRMNtC-7" value="Lane 2" style="swimlane;html=1;startSize=20;horizontal=0;" vertex="1" parent="54dp4Atp1kGyTMTRMNtC-0">
                    <mxGeometry y="500" width="880" height="120" as="geometry"/>
                </mxCell>
            </root>
        </mxGraphModel>
    </diagram>
</mxfile>
